<svg width="928" height="216" viewBox="0 0 928 216" fill="none" xmlns="http://www.w3.org/2000/svg">
  <defs>
    <linearGradient id="alltools-logo-a" x1="22" y1="165" x2="173" y2="30" gradientUnits="userSpaceOnUse">
      <stop offset="0" stop-color="#2563EB"/>
      <stop offset="0.5" stop-color="#7C3AED"/>
      <stop offset="0.78" stop-color="#FF4D5A"/>
      <stop offset="1" stop-color="#FFB84D"/>
    </linearGradient>
  </defs>
  <rect x="4" y="4" width="208" height="208" rx="48" fill="#F6F7F9"/>
  <path d="M35.5 137.8L76.7 66.4C91.8 40.2 129.6 40.2 144.7 66.4L185.9 137.8C193.1 150.3 184.1 165.9 169.7 165.9C163 165.9 156.8 162.3 153.5 156.5L122.3 102.5C116.9 93.1 103.3 93.1 97.9 102.5L66.7 156.5C63.4 162.3 57.2 165.9 50.5 165.9C36.1 165.9 27.1 150.3 35.5 137.8Z" fill="url(#alltools-logo-a)"/>
  <circle cx="110" cy="154" r="16" fill="#FF4D5A"/>
  <path d="M265.23 151L277.71 120.64H334.67L347.15 151H382.87L326.39 18.68H286.47L229.99 151H265.23ZM288.51 94.48L306.19 51.52L323.87 94.48H288.51ZM415.541 151V18.68H382.181V151H415.541ZM523.483 151V121.96H461.203V18.68H427.843V151H523.483ZM625.292 47.72V18.68H516.812V47.72H554.372V151H587.732V47.72H625.292ZM693.319 153.4C733.719 153.4 762.279 125.56 762.279 84.88C762.279 44.2 733.719 16.28 693.319 16.28C652.919 16.28 624.359 44.2 624.359 84.88C624.359 125.56 652.919 153.4 693.319 153.4ZM693.319 123.32C672.039 123.32 658.519 108.6 658.519 84.88C658.519 61.16 672.039 46.36 693.319 46.36C714.599 46.36 728.119 61.16 728.119 84.88C728.119 108.6 714.599 123.32 693.319 123.32ZM839.262 153.4C879.662 153.4 908.222 125.56 908.222 84.88C908.222 44.2 879.662 16.28 839.262 16.28C798.862 16.28 770.302 44.2 770.302 84.88C770.302 125.56 798.862 153.4 839.262 153.4ZM839.262 123.32C817.982 123.32 804.462 108.6 804.462 84.88C804.462 61.16 817.982 46.36 839.262 46.36C860.542 46.36 874.062 61.16 874.062 84.88C874.062 108.6 860.542 123.32 839.262 123.32Z" fill="#0B1220"/>
  <path d="M267 190.5C267 184.4 270.6 180.2 276.1 180.2C281.6 180.2 285.2 184.4 285.2 190.5C285.2 196.6 281.6 200.8 276.1 200.8C270.6 200.8 267 196.6 267 190.5ZM306.9 200V181H313.1V200H306.9ZM333.5 200V181H339.1L347.7 191.3V181H353.9V200H348.3L339.7 189.7V200H333.5ZM375.2 200V181H390.8V186.1H381.4V188.3H390.1V193.1H381.4V194.9H391.1V200H375.2ZM412.2 200V181H418.4V194.8H427.5V200H412.2Z" fill="#2563EB"/>
</svg>
